<svg height='100px' width='100px'  fill="#000000" xmlns="http://www.w3.org/2000/svg" xmlns:xlink="http://www.w3.org/1999/xlink" version="1.1" x="0px" y="0px" viewBox="0 0 69 69" style="enable-background:new 0 0 69 69;" xml:space="preserve"><g><path d="M65.3252,63.3252c0.55273,0,1-0.44727,1-1s-0.44727-1-1-1H3.67871c-0.55273,0-1,0.44727-1,1s0.44727,1,1,1H65.3252z"></path><path d="M2.34473,25.47754c0,3.89447,3.09961,7.07129,6.96014,7.21307c0.08777,0.02515,0.17438,0.0545,0.27032,0.0545h13.07422   v23.75879c0,1.1582,0.45605,2.25098,1.2832,3.07715c2.14548,2.14548,2.0185,0.96737,35.26855,1.2793   c2.6748,0,4.85059-2.17383,4.85059-4.8457v-2.3125c0-0.55273-0.44727-1-1-1h-5.25293V32.74512h1.59668   c4.00293,0,7.25977-3.26172,7.25977-7.27002c0-2.66608-1.44855-4.99463-3.59583-6.25714   c2.24353-1.31925,3.59583-3.67536,3.59583-6.27313c0-4.00879-3.25684-7.27002-7.25977-7.27002H9.5752   c-0.08765,0-0.16602,0.03101-0.24701,0.05383c-3.87134,0.1297-6.98346,3.3114-6.98346,7.21375   c0,2.68097,1.47095,5.02057,3.64478,6.26782C3.81567,20.45746,2.34473,22.79688,2.34473,25.47754z M14.50208,30.74512   c1.40845-1.31958,2.2948-3.18994,2.2948-5.26758c0-2.07513-0.88428-3.94348-2.28973-5.2627h2.73431   c0.06097,0.0116,0.117,0.03662,0.1814,0.03662c2.88184,0,5.22656,2.34424,5.22656,5.22607v5.26758H14.50208z M62.05176,56.01465   c0,1.56934-1.27832,2.8457-2.85059,2.8457l-28.5166-0.01074c0.4375-0.68555,0.68359-1.49512,0.68359-2.34766v-0.12537   c0-0.00415,0.00098-0.00818,0.00098-0.01233V54.7041c0.99486-0.00006,23.95177-0.00153,30.68262-0.00195V56.01465z    M30.36816,52.70215c-0.55273,0-1,0.44727-1,1v2.67499c-0.01868,3.28132-4.71875,3.17432-4.71875,0.12677V25.47754   c0-2.05322-0.86133-3.90918-2.24023-5.22607h28.16406c2.88184,0,5.22559,2.34424,5.22559,5.22607c0,9.96305,0,21.15403,0,27.22461   H30.36816z M64.65527,25.4751c0,2.90576-2.35938,5.27002-5.25977,5.27002h-1.59668v-5.26758   c0-2.07513-0.88428-3.94348-2.28973-5.2627h3.88641C62.2959,20.21484,64.65527,22.57471,64.65527,25.4751z M64.65527,12.94482   c0,2.89252-2.3263,5.27002-5.25977,5.27002H14.49689c1.41138-1.31976,2.29999-3.19208,2.29999-5.27246   c0-2.07776-0.88654-3.94812-2.2951-5.26758h44.89374C62.2959,7.6748,64.65527,10.03906,64.65527,12.94482z M4.34473,12.94238   c0-2.88184,2.34473-5.22607,5.22656-5.22607s5.22559,2.34424,5.22559,5.22607s-2.34375,5.22656-5.22559,5.22656   S4.34473,15.82422,4.34473,12.94238z M9.57129,20.25146c2.88184,0,5.22559,2.34424,5.22559,5.22607   s-2.34375,5.22656-5.22559,5.22656s-5.22656-2.34473-5.22656-5.22656S6.68945,20.25146,9.57129,20.25146z"></path><path d="M51.16211,22.46484H29.54102c-0.55273,0-1,0.44775-1,1v15.35059c0,0.53872,0.45182,1,1,1h21.62109   c0.49936,0,0.98673-0.41419,0.99646-0.98254c0.00357-0.20882,0.00668-15.26737,0.00354-15.36804   C52.16211,22.9126,51.71484,22.46484,51.16211,22.46484z M50.16211,24.46484v10.73962l-3.98145-6.63708   c-0.18652-0.31201-0.53418-0.49902-0.8916-0.48486c-0.36328,0.0127-0.69141,0.22119-0.85645,0.54443l-4.09668,8.02148   l-2.98145-5.62793c-0.15137-0.28516-0.42969-0.47949-0.74902-0.52344c-0.31641-0.04199-0.63965,0.06934-0.86133,0.30371   l-5.20313,5.50159V24.46484H50.16211z M31.86328,37.81543l4.37598-4.62695l2.45117,4.62695H31.86328z M41.98535,37.81543   l3.4082-6.67285l4.00293,6.67285H41.98535z"></path><path d="M51.16211,42.00781H29.54102c-0.55273,0-1,0.44727-1,1s0.44727,1,1,1h21.62109c0.55273,0,1-0.44727,1-1   S51.71484,42.00781,51.16211,42.00781z"></path><path d="M51.16211,46.82129H29.54102c-0.55273,0-1,0.44727-1,1s0.44727,1,1,1h21.62109c0.55273,0,1-0.44727,1-1   S51.71484,46.82129,51.16211,46.82129z"></path></g></svg>